<mxfile host="app.diagrams.net" modified="2021-12-06T11:49:57.721Z" agent="5.0 (Windows NT 10.0; Win64; x64) AppleWebKit/537.36 (KHTML, like Gecko) Chrome/96.0.4664.45 Safari/537.36" etag="9jB0vnY-d_Z_z_9P1lTW" version="15.9.1" type="github">
  <diagram id="FAlw9BCO5ete3UG_6Yci" name="Page-1">
    <mxGraphModel dx="1038" dy="539" grid="1" gridSize="10" guides="1" tooltips="1" connect="1" arrows="1" fold="1" page="1" pageScale="1" pageWidth="827" pageHeight="1169" math="0" shadow="0">
      <root>
        <mxCell id="0" />
        <mxCell id="1" parent="0" />
        <mxCell id="iszoQEETJ18_TzZiw-53-1" value="分发线程流程图解" style="text;html=1;align=center;verticalAlign=middle;resizable=0;points=[];autosize=1;strokeColor=none;fillColor=none;" vertex="1" parent="1">
          <mxGeometry x="30" y="140" width="110" height="20" as="geometry" />
        </mxCell>
        <mxCell id="iszoQEETJ18_TzZiw-53-5" value="" style="edgeStyle=orthogonalEdgeStyle;rounded=0;orthogonalLoop=1;jettySize=auto;html=1;" edge="1" parent="1" source="iszoQEETJ18_TzZiw-53-3" target="iszoQEETJ18_TzZiw-53-4">
          <mxGeometry relative="1" as="geometry" />
        </mxCell>
        <mxCell id="iszoQEETJ18_TzZiw-53-3" value="db" style="whiteSpace=wrap;html=1;" vertex="1" parent="1">
          <mxGeometry x="180" y="110" width="80" height="60" as="geometry" />
        </mxCell>
        <mxCell id="iszoQEETJ18_TzZiw-53-7" value="" style="edgeStyle=orthogonalEdgeStyle;rounded=0;orthogonalLoop=1;jettySize=auto;html=1;" edge="1" parent="1" source="iszoQEETJ18_TzZiw-53-4" target="iszoQEETJ18_TzZiw-53-6">
          <mxGeometry relative="1" as="geometry" />
        </mxCell>
        <mxCell id="iszoQEETJ18_TzZiw-53-4" value="生产线程" style="whiteSpace=wrap;html=1;" vertex="1" parent="1">
          <mxGeometry x="324" y="110" width="90" height="60" as="geometry" />
        </mxCell>
        <mxCell id="iszoQEETJ18_TzZiw-53-9" value="" style="edgeStyle=orthogonalEdgeStyle;rounded=0;orthogonalLoop=1;jettySize=auto;html=1;" edge="1" parent="1" source="iszoQEETJ18_TzZiw-53-6" target="iszoQEETJ18_TzZiw-53-8">
          <mxGeometry relative="1" as="geometry" />
        </mxCell>
        <mxCell id="iszoQEETJ18_TzZiw-53-6" value="任务队列" style="whiteSpace=wrap;html=1;" vertex="1" parent="1">
          <mxGeometry x="490" y="110" width="80" height="60" as="geometry" />
        </mxCell>
        <mxCell id="iszoQEETJ18_TzZiw-53-8" value="消费线程" style="whiteSpace=wrap;html=1;" vertex="1" parent="1">
          <mxGeometry x="650" y="110" width="80" height="60" as="geometry" />
        </mxCell>
        <mxCell id="iszoQEETJ18_TzZiw-53-10" value="" style="endArrow=none;dashed=1;html=1;dashPattern=1 3;strokeWidth=2;rounded=0;" edge="1" parent="1">
          <mxGeometry width="50" height="50" relative="1" as="geometry">
            <mxPoint x="220" y="540" as="sourcePoint" />
            <mxPoint x="220" y="180" as="targetPoint" />
          </mxGeometry>
        </mxCell>
        <mxCell id="iszoQEETJ18_TzZiw-53-11" value="" style="endArrow=none;dashed=1;html=1;dashPattern=1 3;strokeWidth=2;rounded=0;" edge="1" parent="1">
          <mxGeometry width="50" height="50" relative="1" as="geometry">
            <mxPoint x="368.6600000000001" y="539.9999999999999" as="sourcePoint" />
            <mxPoint x="368.6600000000001" y="180" as="targetPoint" />
          </mxGeometry>
        </mxCell>
        <mxCell id="iszoQEETJ18_TzZiw-53-12" value="" style="endArrow=none;dashed=1;html=1;dashPattern=1 3;strokeWidth=2;rounded=0;" edge="1" parent="1">
          <mxGeometry width="50" height="50" relative="1" as="geometry">
            <mxPoint x="529.6600000000001" y="539.9999999999999" as="sourcePoint" />
            <mxPoint x="529.6600000000001" y="180" as="targetPoint" />
          </mxGeometry>
        </mxCell>
        <mxCell id="iszoQEETJ18_TzZiw-53-13" value="" style="endArrow=none;dashed=1;html=1;dashPattern=1 3;strokeWidth=2;rounded=0;" edge="1" parent="1">
          <mxGeometry width="50" height="50" relative="1" as="geometry">
            <mxPoint x="689.66" y="539.9999999999999" as="sourcePoint" />
            <mxPoint x="689.66" y="180" as="targetPoint" />
          </mxGeometry>
        </mxCell>
        <mxCell id="iszoQEETJ18_TzZiw-53-14" value="" style="endArrow=classic;html=1;rounded=0;" edge="1" parent="1">
          <mxGeometry width="50" height="50" relative="1" as="geometry">
            <mxPoint x="360" y="220" as="sourcePoint" />
            <mxPoint x="230" y="220" as="targetPoint" />
          </mxGeometry>
        </mxCell>
        <mxCell id="iszoQEETJ18_TzZiw-53-15" value="&lt;font style=&quot;font-size: 11px ; line-height: 1&quot;&gt;查询ctmshistoryeventdetail表&lt;/font&gt;" style="text;html=1;align=center;verticalAlign=middle;resizable=0;points=[];autosize=1;strokeColor=none;fillColor=none;" vertex="1" parent="1">
          <mxGeometry x="210" y="190" width="170" height="20" as="geometry" />
        </mxCell>
        <mxCell id="iszoQEETJ18_TzZiw-53-16" value="" style="endArrow=classic;html=1;rounded=0;fontSize=11;" edge="1" parent="1">
          <mxGeometry width="50" height="50" relative="1" as="geometry">
            <mxPoint x="230" y="290" as="sourcePoint" />
            <mxPoint x="360" y="290" as="targetPoint" />
          </mxGeometry>
        </mxCell>
        <mxCell id="iszoQEETJ18_TzZiw-53-17" value="返回符合条件的分发事件&lt;br&gt;" style="text;html=1;align=center;verticalAlign=middle;resizable=0;points=[];autosize=1;strokeColor=none;fillColor=none;fontSize=11;" vertex="1" parent="1">
          <mxGeometry x="210" y="260" width="150" height="20" as="geometry" />
        </mxCell>
        <mxCell id="iszoQEETJ18_TzZiw-53-18" value="" style="endArrow=classic;html=1;rounded=0;fontSize=11;" edge="1" parent="1">
          <mxGeometry width="50" height="50" relative="1" as="geometry">
            <mxPoint x="380" y="290" as="sourcePoint" />
            <mxPoint x="520" y="290" as="targetPoint" />
          </mxGeometry>
        </mxCell>
        <mxCell id="iszoQEETJ18_TzZiw-53-19" value="按对象区分放入队列" style="text;html=1;align=center;verticalAlign=middle;resizable=0;points=[];autosize=1;strokeColor=none;fillColor=none;fontSize=11;" vertex="1" parent="1">
          <mxGeometry x="385" y="260" width="120" height="20" as="geometry" />
        </mxCell>
        <mxCell id="iszoQEETJ18_TzZiw-53-20" value="" style="endArrow=classic;html=1;rounded=0;" edge="1" parent="1">
          <mxGeometry width="50" height="50" relative="1" as="geometry">
            <mxPoint x="680" y="330" as="sourcePoint" />
            <mxPoint x="540.0000000000001" y="330" as="targetPoint" />
          </mxGeometry>
        </mxCell>
        <mxCell id="iszoQEETJ18_TzZiw-53-21" value="&lt;font style=&quot;font-size: 11px ; line-height: 1&quot;&gt;获取队列数据&lt;/font&gt;" style="text;html=1;align=center;verticalAlign=middle;resizable=0;points=[];autosize=1;strokeColor=none;fillColor=none;" vertex="1" parent="1">
          <mxGeometry x="560" y="300" width="90" height="20" as="geometry" />
        </mxCell>
        <mxCell id="iszoQEETJ18_TzZiw-53-24" value="" style="endArrow=none;html=1;rounded=0;fontSize=11;" edge="1" parent="1">
          <mxGeometry width="50" height="50" relative="1" as="geometry">
            <mxPoint x="700" y="410" as="sourcePoint" />
            <mxPoint x="750" y="410" as="targetPoint" />
          </mxGeometry>
        </mxCell>
        <mxCell id="iszoQEETJ18_TzZiw-53-25" value="" style="endArrow=none;html=1;rounded=0;fontSize=11;" edge="1" parent="1">
          <mxGeometry width="50" height="50" relative="1" as="geometry">
            <mxPoint x="750" y="450" as="sourcePoint" />
            <mxPoint x="750" y="410" as="targetPoint" />
          </mxGeometry>
        </mxCell>
        <mxCell id="iszoQEETJ18_TzZiw-53-26" value="" style="endArrow=classic;html=1;rounded=0;fontSize=11;" edge="1" parent="1">
          <mxGeometry width="50" height="50" relative="1" as="geometry">
            <mxPoint x="750" y="450" as="sourcePoint" />
            <mxPoint x="700" y="450" as="targetPoint" />
          </mxGeometry>
        </mxCell>
        <mxCell id="iszoQEETJ18_TzZiw-53-27" value="校验数据是否&lt;br&gt;符合注入条件" style="text;html=1;align=center;verticalAlign=middle;resizable=0;points=[];autosize=1;strokeColor=none;fillColor=none;fontSize=11;" vertex="1" parent="1">
          <mxGeometry x="685" y="415" width="90" height="30" as="geometry" />
        </mxCell>
        <mxCell id="iszoQEETJ18_TzZiw-53-28" value="" style="endArrow=none;html=1;rounded=0;fontSize=11;" edge="1" parent="1">
          <mxGeometry width="50" height="50" relative="1" as="geometry">
            <mxPoint x="700" y="479.9999999999999" as="sourcePoint" />
            <mxPoint x="750" y="479.9999999999999" as="targetPoint" />
          </mxGeometry>
        </mxCell>
        <mxCell id="iszoQEETJ18_TzZiw-53-29" value="" style="endArrow=none;html=1;rounded=0;fontSize=11;" edge="1" parent="1">
          <mxGeometry width="50" height="50" relative="1" as="geometry">
            <mxPoint x="750" y="519.9999999999999" as="sourcePoint" />
            <mxPoint x="750" y="479.9999999999999" as="targetPoint" />
          </mxGeometry>
        </mxCell>
        <mxCell id="iszoQEETJ18_TzZiw-53-30" value="" style="endArrow=classic;html=1;rounded=0;fontSize=11;" edge="1" parent="1">
          <mxGeometry width="50" height="50" relative="1" as="geometry">
            <mxPoint x="750" y="519.9999999999999" as="sourcePoint" />
            <mxPoint x="700" y="519.9999999999999" as="targetPoint" />
          </mxGeometry>
        </mxCell>
        <mxCell id="iszoQEETJ18_TzZiw-53-31" value="发送soap消息&lt;br&gt;更新注入状态" style="text;html=1;align=center;verticalAlign=middle;resizable=0;points=[];autosize=1;strokeColor=none;fillColor=none;fontSize=11;" vertex="1" parent="1">
          <mxGeometry x="685" y="485" width="90" height="30" as="geometry" />
        </mxCell>
        <mxCell id="iszoQEETJ18_TzZiw-53-33" value="" style="strokeWidth=2;html=1;shape=mxgraph.flowchart.start_2;whiteSpace=wrap;fontSize=11;" vertex="1" parent="1">
          <mxGeometry x="270" y="570" width="30" height="30" as="geometry" />
        </mxCell>
        <mxCell id="iszoQEETJ18_TzZiw-53-34" value="" style="strokeWidth=2;html=1;shape=mxgraph.flowchart.start_2;whiteSpace=wrap;fontSize=11;fontStyle=1" vertex="1" parent="1">
          <mxGeometry x="440" y="570" width="30" height="30" as="geometry" />
        </mxCell>
        <mxCell id="iszoQEETJ18_TzZiw-53-35" value="" style="strokeWidth=2;html=1;shape=mxgraph.flowchart.start_2;whiteSpace=wrap;fontSize=11;fontStyle=1" vertex="1" parent="1">
          <mxGeometry x="600" y="570" width="30" height="30" as="geometry" />
        </mxCell>
        <mxCell id="iszoQEETJ18_TzZiw-53-36" value="" style="strokeWidth=2;html=1;shape=mxgraph.flowchart.start_2;whiteSpace=wrap;fontSize=11;fontStyle=1;fillColor=#fff2cc;strokeColor=#d6b656;" vertex="1" parent="1">
          <mxGeometry x="745" y="570" width="30" height="30" as="geometry" />
        </mxCell>
        <mxCell id="iszoQEETJ18_TzZiw-53-37" value="等待分发" style="text;html=1;align=center;verticalAlign=middle;resizable=0;points=[];autosize=1;strokeColor=none;fillColor=none;fontSize=11;" vertex="1" parent="1">
          <mxGeometry x="250" y="550" width="60" height="20" as="geometry" />
        </mxCell>
        <mxCell id="iszoQEETJ18_TzZiw-53-38" value="等待分发" style="text;html=1;align=center;verticalAlign=middle;resizable=0;points=[];autosize=1;strokeColor=none;fillColor=none;fontSize=11;" vertex="1" parent="1">
          <mxGeometry x="415" y="550" width="60" height="20" as="geometry" />
        </mxCell>
        <mxCell id="iszoQEETJ18_TzZiw-53-39" value="正在处理" style="text;html=1;align=center;verticalAlign=middle;resizable=0;points=[];autosize=1;strokeColor=none;fillColor=none;fontSize=11;" vertex="1" parent="1">
          <mxGeometry x="560" y="550" width="60" height="20" as="geometry" />
        </mxCell>
        <mxCell id="iszoQEETJ18_TzZiw-53-40" value="注入成功/失败" style="text;html=1;align=center;verticalAlign=middle;resizable=0;points=[];autosize=1;strokeColor=none;fillColor=none;fontSize=11;" vertex="1" parent="1">
          <mxGeometry x="715" y="550" width="90" height="20" as="geometry" />
        </mxCell>
      </root>
    </mxGraphModel>
  </diagram>
</mxfile>
